<?xml version="1.0" standalone="no"?>
<!DOCTYPE svg PUBLIC "-//W3C//DTD SVG 20010904//EN"
 "http://www.w3.org/TR/2001/REC-SVG-20010904/DTD/svg10.dtd">
<svg version="1.0" xmlns="http://www.w3.org/2000/svg"
 width="300.000000pt" height="196.000000pt" viewBox="0 0 300.000000 196.000000"
 preserveAspectRatio="xMidYMid meet">

<g transform="translate(0.000000,196.000000) scale(0.100000,-0.100000)"
fill="#000000" stroke="none">
<path d="M1790 1163 c0 -463 4 -823 10 -857 14 -89 44 -142 98 -174 45 -26 54
-27 202 -30 85 -2 175 -2 200 0 l45 3 -54 19 c-69 24 -145 95 -160 151 -7 27
-11 298 -11 863 l0 822 -165 0 -165 0 0 -797z"/>
<path d="M2440 1138 c0 -924 -1 -907 70 -978 52 -52 92 -60 296 -60 l179 0
-75 38 c-55 27 -82 48 -105 80 l-30 44 -3 849 -2 849 -165 0 -165 0 0 -822z"/>
<path d="M816 1866 c-88 -123 -131 -252 -124 -371 4 -63 16 -95 123 -335 65
-146 120 -267 122 -269 1 -2 29 21 61 52 82 77 110 82 211 31 42 -21 78 -39
80 -41 2 -1 -2 -9 -9 -18 -16 -19 -57 -19 -90 0 -14 8 -41 14 -61 15 -38 0
-36 1 -272 -178 -59 -45 -114 -82 -122 -82 -12 0 -15 13 -15 58 -1 154 -69
320 -181 436 l-68 71 -1 -63 c0 -118 -25 -207 -100 -357 -91 -182 -100 -211
-100 -309 0 -88 16 -137 64 -193 l27 -32 -63 -62 c-72 -71 -138 -123 -222
-173 -33 -20 -53 -36 -45 -36 28 0 197 50 270 80 201 83 307 178 527 473 85
114 158 204 163 200 4 -4 73 -155 154 -336 l148 -327 199 0 c110 0 197 3 195
8 -3 4 -174 385 -380 847 -463 1036 -435 975 -441 975 -3 0 -25 -29 -50 -64z"/>
</g>
</svg>
